<?xml version="1.0" encoding="UTF-8"?>
<!DOCTYPE svg PUBLIC "-//W3C//DTD SVG 1.1//EN" "http://www.w3.org/Graphics/SVG/1.1/DTD/svg11.dtd">
<!-- Creator: CorelDRAW X7 -->
<svg xmlns="http://www.w3.org/2000/svg" xml:space="preserve" width="240mm" height="237mm" version="1.1" style="shape-rendering:geometricPrecision; text-rendering:geometricPrecision; image-rendering:optimizeQuality; fill-rule:evenodd; clip-rule:evenodd"
viewBox="0 0 24000 23700"
 xmlns:xlink="http://www.w3.org/1999/xlink">
 <defs>
  <style type="text/css">
   <![CDATA[
    .str0 {stroke:white;stroke-width:200}
    .str1 {stroke:#91F277;stroke-width:150}
    .fil3 {fill:none}
    .fil0 {fill:#4C8000}
    .fil1 {fill:#6699B2}
    .fil2 {fill:white}
   ]]>
  </style>
   <clipPath id="id0">
    <path d="M129 151l23742 0 0 23398 -23742 0 0 -23398z"/>
   </clipPath>
 </defs>
 <g id="Слой_x0020_1">
  <metadata id="CorelCorpID_0Corel-Layer"/>
  <g>
  </g>
  <g style="clip-path:url(#id0)">
   <g>
    <rect class="fil0" x="-270384" y="11877" width="564767" height="281218"/>
    <rect class="fil1" x="-270384" y="-269385" width="564767" height="281218"/>
    <rect class="fil2" x="-270384" y="11833" width="564767" height="43.8885"/>
    <g id="_1848586600048">
     <rect class="fil2 str0" x="11975" y="1440" width="49.4982" height="836.436"/>
     <rect class="fil2 str0" x="11975" y="21432" width="49.4982" height="836.436"/>
     <rect class="fil2 str0" transform="matrix(2.15014E-014 -0.811846 0.811846 2.15014E-014 1585.84 11879.3)" width="60.97" height="1030.29"/>
     <rect class="fil2 str0" transform="matrix(2.15014E-014 -0.811846 0.811846 2.15014E-014 21577.7 11879.3)" width="60.97" height="1030.29"/>
     <rect class="fil2 str0" transform="matrix(0.703079 0.405923 -0.405923 0.703079 17185.6 2823.23)" width="60.97" height="1030.29"/>
     <rect class="fil2 str0" transform="matrix(0.703079 -0.405923 0.405923 0.703079 6771.47 2847.98)" width="60.97" height="1030.29"/>
     <rect class="fil2 str0" transform="matrix(0.405923 -0.703079 0.703079 0.405923 2968.69 6668.89)" width="60.97" height="1030.29"/>
     <rect class="fil2 str0" transform="matrix(0.405923 0.703079 -0.703079 0.405923 21006.5 6626.02)" width="60.97" height="1030.29"/>
     <rect class="fil2 str0" transform="matrix(0.405923 0.703079 -0.703079 0.405923 3693.07 16621.9)" width="60.97" height="1030.29"/>
     <rect class="fil2 str0" transform="matrix(0.405923 -0.703079 0.703079 0.405923 20282.1 16664.8)" width="60.97" height="1030.29"/>
     <rect class="fil2 str0" transform="matrix(0.703079 0.405923 -0.405923 0.703079 7189.69 20136.7)" width="60.97" height="1030.29"/>
     <rect class="fil2 str0" transform="matrix(0.703079 -0.405923 0.405923 0.703079 16767.4 20161.4)" width="60.97" height="1030.29"/>
    </g>
   </g>
  </g>
  <polygon class="fil3 str1" points="129,151 23871,151 23871,23549 129,23549 "/>
 </g>
</svg>
